<svg width="69" height="42" viewBox="0 0 69 42" fill="none" xmlns="http://www.w3.org/2000/svg">
<path d="M2.964 37.172C4.18 37.172 4.788 36.756 4.788 35.924C4.788 35.668 4.732 35.452 4.62 35.276C4.516 35.092 4.372 34.936 4.188 34.808C4.004 34.672 3.792 34.556 3.552 34.46C3.32 34.364 3.072 34.268 2.808 34.172C2.504 34.068 2.216 33.952 1.944 33.824C1.672 33.688 1.436 33.532 1.236 33.356C1.036 33.172 0.876 32.956 0.756 32.708C0.644 32.46 0.588 32.16 0.588 31.808C0.588 31.08 0.836 30.512 1.332 30.104C1.828 29.696 2.512 29.492 3.384 29.492C3.888 29.492 4.344 29.548 4.752 29.66C5.168 29.764 5.472 29.88 5.664 30.008L5.292 30.956C5.124 30.852 4.872 30.752 4.536 30.656C4.208 30.552 3.824 30.5 3.384 30.5C3.16 30.5 2.952 30.524 2.76 30.572C2.568 30.62 2.4 30.692 2.256 30.788C2.112 30.884 1.996 31.008 1.908 31.16C1.828 31.304 1.788 31.476 1.788 31.676C1.788 31.9 1.832 32.088 1.92 32.24C2.008 32.392 2.132 32.528 2.292 32.648C2.452 32.76 2.636 32.864 2.844 32.96C3.06 33.056 3.296 33.152 3.552 33.248C3.912 33.392 4.24 33.536 4.536 33.68C4.84 33.824 5.1 33.996 5.316 34.196C5.54 34.396 5.712 34.636 5.832 34.916C5.952 35.188 6.012 35.52 6.012 35.912C6.012 36.64 5.744 37.2 5.208 37.592C4.68 37.984 3.932 38.18 2.964 38.18C2.636 38.18 2.332 38.156 2.052 38.108C1.78 38.068 1.536 38.02 1.32 37.964C1.104 37.9 0.916 37.836 0.756 37.772C0.604 37.7 0.484 37.64 0.396 37.592L0.744 36.632C0.928 36.736 1.208 36.852 1.584 36.98C1.96 37.108 2.42 37.172 2.964 37.172ZM25.2267 34.52C25.3547 34.68 25.5147 34.892 25.7067 35.156C25.9067 35.412 26.1107 35.7 26.3187 36.02C26.5267 36.332 26.7307 36.66 26.9307 37.004C27.1387 37.348 27.3147 37.68 27.4587 38H26.1867C26.0267 37.696 25.8507 37.388 25.6587 37.076C25.4747 36.764 25.2867 36.468 25.0947 36.188C24.9027 35.9 24.7107 35.632 24.5187 35.384C24.3347 35.136 24.1667 34.92 24.0147 34.736C23.9107 34.744 23.8027 34.748 23.6907 34.748C23.5867 34.748 23.4787 34.748 23.3667 34.748H22.3227V38H21.1587V29.804C21.4867 29.724 21.8507 29.672 22.2507 29.648C22.6587 29.616 23.0307 29.6 23.3667 29.6C24.5347 29.6 25.4227 29.82 26.0307 30.26C26.6467 30.7 26.9547 31.356 26.9547 32.228C26.9547 32.78 26.8067 33.252 26.5107 33.644C26.2227 34.036 25.7947 34.328 25.2267 34.52ZM23.4627 30.62C22.9667 30.62 22.5867 30.632 22.3227 30.656V33.788H23.1507C23.5507 33.788 23.9107 33.768 24.2307 33.728C24.5507 33.688 24.8187 33.612 25.0347 33.5C25.2587 33.388 25.4307 33.232 25.5507 33.032C25.6707 32.824 25.7307 32.552 25.7307 32.216C25.7307 31.904 25.6707 31.644 25.5507 31.436C25.4307 31.228 25.2667 31.064 25.0587 30.944C24.8587 30.824 24.6187 30.74 24.3387 30.692C24.0667 30.644 23.7747 30.62 23.4627 30.62ZM42.4456 38V29.684H47.5216V30.68H43.6096V33.152H47.0896V34.124H43.6096V37.004H47.8216V38H42.4456ZM64.9731 37.172C66.1891 37.172 66.7971 36.756 66.7971 35.924C66.7971 35.668 66.7411 35.452 66.6291 35.276C66.5251 35.092 66.3811 34.936 66.1971 34.808C66.0131 34.672 65.8011 34.556 65.5611 34.46C65.3291 34.364 65.0811 34.268 64.8171 34.172C64.5131 34.068 64.2251 33.952 63.9531 33.824C63.6811 33.688 63.4451 33.532 63.2451 33.356C63.0451 33.172 62.8851 32.956 62.7651 32.708C62.6531 32.46 62.5971 32.16 62.5971 31.808C62.5971 31.08 62.8451 30.512 63.3411 30.104C63.8371 29.696 64.5211 29.492 65.3931 29.492C65.8971 29.492 66.3531 29.548 66.7611 29.66C67.1771 29.764 67.4811 29.88 67.6731 30.008L67.3011 30.956C67.1331 30.852 66.8811 30.752 66.5451 30.656C66.2171 30.552 65.8331 30.5 65.3931 30.5C65.1691 30.5 64.9611 30.524 64.7691 30.572C64.5771 30.62 64.4091 30.692 64.2651 30.788C64.1211 30.884 64.0051 31.008 63.9171 31.16C63.8371 31.304 63.7971 31.476 63.7971 31.676C63.7971 31.9 63.8411 32.088 63.9291 32.24C64.0171 32.392 64.1411 32.528 64.3011 32.648C64.4611 32.76 64.6451 32.864 64.8531 32.96C65.0691 33.056 65.3051 33.152 65.5611 33.248C65.9211 33.392 66.2491 33.536 66.5451 33.68C66.8491 33.824 67.1091 33.996 67.3251 34.196C67.5491 34.396 67.7211 34.636 67.8411 34.916C67.9611 35.188 68.0211 35.52 68.0211 35.912C68.0211 36.64 67.7531 37.2 67.2171 37.592C66.6891 37.984 65.9411 38.18 64.9731 38.18C64.6451 38.18 64.3411 38.156 64.0611 38.108C63.7891 38.068 63.5451 38.02 63.3291 37.964C63.1131 37.9 62.9251 37.836 62.7651 37.772C62.6131 37.7 62.4931 37.64 62.4051 37.592L62.7531 36.632C62.9371 36.736 63.2171 36.852 63.5931 36.98C63.9691 37.108 64.4291 37.172 64.9731 37.172Z" fill="white"/>
<path d="M11.88 7.14V9.8H7.7V21H4.58V9.8H0.4V7.14H11.88ZM13.8852 21V7.14H23.2452V9.76H17.0052V12.48H22.5452V15.04H17.0052V18.38H23.7052V21H13.8852ZM29.7941 18.62C30.2341 18.62 30.5941 18.5867 30.8741 18.52C31.1674 18.44 31.4007 18.34 31.5741 18.22C31.7474 18.0867 31.8674 17.9333 31.9341 17.76C32.0007 17.5867 32.0341 17.3933 32.0341 17.18C32.0341 16.7267 31.8207 16.3533 31.3941 16.06C30.9674 15.7533 30.2341 15.4267 29.1941 15.08C28.7407 14.92 28.2874 14.74 27.8341 14.54C27.3807 14.3267 26.9741 14.0667 26.6141 13.76C26.2541 13.44 25.9607 13.06 25.7341 12.62C25.5074 12.1667 25.3941 11.62 25.3941 10.98C25.3941 10.34 25.5141 9.76667 25.7541 9.26C25.9941 8.74 26.3341 8.3 26.7741 7.94C27.2141 7.58 27.7474 7.30667 28.3741 7.12C29.0007 6.92 29.7074 6.82 30.4941 6.82C31.4274 6.82 32.2341 6.92 32.9141 7.12C33.5941 7.32 34.1541 7.54 34.5941 7.78L33.6941 10.24C33.3074 10.04 32.8741 9.86667 32.3941 9.72C31.9274 9.56 31.3607 9.48 30.6941 9.48C29.9474 9.48 29.4074 9.58667 29.0741 9.8C28.7541 10 28.5941 10.3133 28.5941 10.74C28.5941 10.9933 28.6541 11.2067 28.7741 11.38C28.8941 11.5533 29.0607 11.7133 29.2741 11.86C29.5007 11.9933 29.7541 12.12 30.0341 12.24C30.3274 12.3467 30.6474 12.46 30.9941 12.58C31.7141 12.8467 32.3407 13.1133 32.8741 13.38C33.4074 13.6333 33.8474 13.9333 34.1941 14.28C34.5541 14.6267 34.8207 15.0333 34.9941 15.5C35.1674 15.9667 35.2541 16.5333 35.2541 17.2C35.2541 18.4933 34.8007 19.5 33.8941 20.22C32.9874 20.9267 31.6207 21.28 29.7941 21.28C29.1807 21.28 28.6274 21.24 28.1341 21.16C27.6407 21.0933 27.2007 21.0067 26.8141 20.9C26.4407 20.7933 26.1141 20.68 25.8341 20.56C25.5674 20.44 25.3407 20.3267 25.1541 20.22L26.0341 17.74C26.4474 17.9667 26.9541 18.1733 27.5541 18.36C28.1674 18.5333 28.9141 18.62 29.7941 18.62ZM45.8347 21C45.5547 20.5467 45.2214 20.06 44.8347 19.54C44.4614 19.0067 44.048 18.48 43.5947 17.96C43.1547 17.4267 42.6947 16.92 42.2147 16.44C41.7347 15.9467 41.2547 15.5133 40.7747 15.14V21H37.6547V7.14H40.7747V12.38C41.588 11.5267 42.4014 10.64 43.2147 9.72C44.0414 8.78667 44.808 7.92667 45.5147 7.14H49.2147C48.268 8.26 47.3147 9.34 46.3547 10.38C45.408 11.42 44.408 12.4667 43.3547 13.52C44.4614 14.44 45.528 15.5333 46.5547 16.8C47.5947 18.0667 48.588 19.4667 49.5347 21H45.8347ZM61.1144 21C60.9677 20.52 60.801 20.0267 60.6144 19.52C60.441 19.0133 60.2677 18.5067 60.0944 18H54.6944C54.521 18.5067 54.341 19.0133 54.1544 19.52C53.981 20.0267 53.821 20.52 53.6744 21H50.4344C50.9544 19.5067 51.4477 18.1267 51.9144 16.86C52.381 15.5933 52.8344 14.4 53.2744 13.28C53.7277 12.16 54.1677 11.1 54.5944 10.1C55.0344 9.08667 55.4877 8.1 55.9544 7.14H58.9344C59.3877 8.1 59.8344 9.08667 60.2744 10.1C60.7144 11.1 61.1544 12.16 61.5944 13.28C62.0477 14.4 62.5077 15.5933 62.9744 16.86C63.441 18.1267 63.9344 19.5067 64.4544 21H61.1144ZM57.3744 10.28C57.3077 10.48 57.2077 10.7533 57.0744 11.1C56.941 11.4467 56.7877 11.8467 56.6144 12.3C56.441 12.7533 56.2477 13.2533 56.0344 13.8C55.8344 14.3467 55.6277 14.92 55.4144 15.52H59.3544C59.141 14.92 58.9344 14.3467 58.7344 13.8C58.5344 13.2533 58.341 12.7533 58.1544 12.3C57.981 11.8467 57.8277 11.4467 57.6944 11.1C57.561 10.7533 57.4544 10.48 57.3744 10.28Z" fill="white"/>
</svg>
