<svg width="75" height="42" viewBox="0 0 75 42" fill="none" xmlns="http://www.w3.org/2000/svg">
<path d="M4.608 38.18C4.024 38.18 3.492 38.084 3.012 37.892C2.532 37.7 2.12 37.42 1.776 37.052C1.432 36.684 1.164 36.232 0.972 35.696C0.788 35.152 0.696 34.532 0.696 33.836C0.696 33.14 0.8 32.524 1.008 31.988C1.224 31.444 1.512 30.988 1.872 30.62C2.232 30.252 2.652 29.972 3.132 29.78C3.612 29.588 4.124 29.492 4.668 29.492C5.012 29.492 5.32 29.516 5.592 29.564C5.872 29.612 6.112 29.668 6.312 29.732C6.52 29.796 6.688 29.86 6.816 29.924C6.944 29.988 7.032 30.036 7.08 30.068L6.744 31.028C6.672 30.98 6.568 30.928 6.432 30.872C6.296 30.816 6.14 30.76 5.964 30.704C5.796 30.648 5.608 30.604 5.4 30.572C5.2 30.532 4.996 30.512 4.788 30.512C4.348 30.512 3.952 30.588 3.6 30.74C3.248 30.892 2.948 31.112 2.7 31.4C2.452 31.688 2.26 32.04 2.124 32.456C1.996 32.864 1.932 33.324 1.932 33.836C1.932 34.332 1.988 34.784 2.1 35.192C2.22 35.6 2.396 35.952 2.628 36.248C2.86 36.536 3.148 36.76 3.492 36.92C3.844 37.08 4.252 37.16 4.716 37.16C5.252 37.16 5.696 37.104 6.048 36.992C6.4 36.88 6.664 36.78 6.84 36.692L7.14 37.652C7.084 37.692 6.984 37.744 6.84 37.808C6.696 37.864 6.516 37.92 6.3 37.976C6.084 38.032 5.832 38.08 5.544 38.12C5.256 38.16 4.944 38.18 4.608 38.18ZM21.643 33.836C21.643 33.124 21.747 32.496 21.955 31.952C22.171 31.408 22.459 30.956 22.819 30.596C23.187 30.228 23.611 29.952 24.091 29.768C24.579 29.584 25.095 29.492 25.639 29.492C26.175 29.492 26.679 29.584 27.151 29.768C27.631 29.952 28.051 30.228 28.411 30.596C28.771 30.956 29.055 31.408 29.263 31.952C29.479 32.496 29.587 33.124 29.587 33.836C29.587 34.548 29.479 35.176 29.263 35.72C29.055 36.264 28.771 36.72 28.411 37.088C28.051 37.448 27.631 37.72 27.151 37.904C26.679 38.088 26.175 38.18 25.639 38.18C25.095 38.18 24.579 38.088 24.091 37.904C23.611 37.72 23.187 37.448 22.819 37.088C22.459 36.72 22.171 36.264 21.955 35.72C21.747 35.176 21.643 34.548 21.643 33.836ZM22.867 33.836C22.867 34.34 22.931 34.8 23.059 35.216C23.187 35.624 23.367 35.972 23.599 36.26C23.839 36.548 24.127 36.772 24.463 36.932C24.807 37.084 25.191 37.16 25.615 37.16C26.039 37.16 26.419 37.084 26.755 36.932C27.091 36.772 27.375 36.548 27.607 36.26C27.847 35.972 28.031 35.624 28.159 35.216C28.287 34.8 28.351 34.34 28.351 33.836C28.351 33.332 28.287 32.876 28.159 32.468C28.031 32.052 27.847 31.7 27.607 31.412C27.375 31.124 27.091 30.904 26.755 30.752C26.419 30.592 26.039 30.512 25.615 30.512C25.191 30.512 24.807 30.592 24.463 30.752C24.127 30.904 23.839 31.124 23.599 31.412C23.367 31.7 23.187 32.052 23.059 32.468C22.931 32.876 22.867 33.332 22.867 33.836ZM51.8869 33.836C51.8869 34.556 51.7749 35.184 51.5509 35.72C51.3269 36.248 51.0109 36.688 50.6029 37.04C50.1949 37.384 49.7069 37.644 49.1389 37.82C48.5709 37.988 47.9469 38.072 47.2669 38.072C46.9309 38.072 46.5589 38.056 46.1509 38.024C45.7509 38 45.3869 37.948 45.0589 37.868V29.804C45.3869 29.724 45.7509 29.672 46.1509 29.648C46.5589 29.616 46.9309 29.6 47.2669 29.6C47.9469 29.6 48.5709 29.688 49.1389 29.864C49.7069 30.032 50.1949 30.292 50.6029 30.644C51.0109 30.988 51.3269 31.428 51.5509 31.964C51.7749 32.492 51.8869 33.116 51.8869 33.836ZM47.3629 37.052C48.4669 37.052 49.2909 36.772 49.8349 36.212C50.3789 35.644 50.6509 34.852 50.6509 33.836C50.6509 32.82 50.3789 32.032 49.8349 31.472C49.2909 30.904 48.4669 30.62 47.3629 30.62C47.0349 30.62 46.7789 30.624 46.5949 30.632C46.4189 30.64 46.2949 30.648 46.2229 30.656V37.016C46.2949 37.024 46.4189 37.032 46.5949 37.04C46.7789 37.048 47.0349 37.052 47.3629 37.052ZM67.3536 38V29.684H72.4296V30.68H68.5176V33.152H71.9976V34.124H68.5176V37.004H72.7296V38H67.3536Z" fill="white"/>
<path d="M4.22 14.06C4.22 14.74 4.3 15.3533 4.46 15.9C4.63333 16.4467 4.87333 16.92 5.18 17.32C5.5 17.7067 5.88667 18.0067 6.34 18.22C6.79333 18.4333 7.31333 18.54 7.9 18.54C8.47333 18.54 8.98667 18.4333 9.44 18.22C9.90667 18.0067 10.2933 17.7067 10.6 17.32C10.92 16.92 11.16 16.4467 11.32 15.9C11.4933 15.3533 11.58 14.74 11.58 14.06C11.58 13.38 11.4933 12.7667 11.32 12.22C11.16 11.66 10.92 11.1867 10.6 10.8C10.2933 10.4 9.90667 10.0933 9.44 9.88C8.98667 9.66667 8.47333 9.56 7.9 9.56C7.31333 9.56 6.79333 9.67333 6.34 9.9C5.88667 10.1133 5.5 10.42 5.18 10.82C4.87333 11.2067 4.63333 11.68 4.46 12.24C4.3 12.7867 4.22 13.3933 4.22 14.06ZM14.8 14.06C14.8 15.2467 14.62 16.2933 14.26 17.2C13.9133 18.0933 13.4333 18.8467 12.82 19.46C12.2067 20.06 11.4733 20.5133 10.62 20.82C9.78 21.1267 8.87333 21.28 7.9 21.28C6.95333 21.28 6.06 21.1267 5.22 20.82C4.38 20.5133 3.64667 20.06 3.02 19.46C2.39333 18.8467 1.9 18.0933 1.54 17.2C1.18 16.2933 1 15.2467 1 14.06C1 12.8733 1.18667 11.8333 1.56 10.94C1.93333 10.0333 2.43333 9.27333 3.06 8.66C3.7 8.04667 4.43333 7.58667 5.26 7.28C6.1 6.97333 6.98 6.82 7.9 6.82C8.84667 6.82 9.74 6.97333 10.58 7.28C11.42 7.58667 12.1533 8.04667 12.78 8.66C13.4067 9.27333 13.9 10.0333 14.26 10.94C14.62 11.8333 14.8 12.8733 14.8 14.06ZM26.7008 21C25.8074 19.4133 24.8408 17.8467 23.8008 16.3C22.7608 14.7533 21.6541 13.2933 20.4808 11.92V21H17.4008V7.14H19.9408C20.3808 7.58 20.8674 8.12 21.4008 8.76C21.9341 9.4 22.4741 10.0867 23.0208 10.82C23.5808 11.54 24.1341 12.2933 24.6808 13.08C25.2274 13.8533 25.7408 14.6 26.2208 15.32V7.14H29.3208V21H26.7008ZM32.518 21V7.14H41.798V9.76H35.638V12.66H41.118V15.28H35.638V21H32.518ZM44.0023 7.14H47.1223V21H44.0023V7.14ZM54.3905 6.98C56.4705 6.98 58.0638 7.35333 59.1705 8.1C60.2771 8.83333 60.8305 9.98 60.8305 11.54C60.8305 12.5133 60.6038 13.3067 60.1505 13.92C59.7105 14.52 59.0705 14.9933 58.2305 15.34C58.5105 15.6867 58.8038 16.0867 59.1105 16.54C59.4171 16.98 59.7171 17.4467 60.0105 17.94C60.3171 18.42 60.6105 18.9267 60.8905 19.46C61.1705 19.98 61.4305 20.4933 61.6705 21H58.1705C57.9171 20.5467 57.6571 20.0867 57.3905 19.62C57.1371 19.1533 56.8705 18.7 56.5905 18.26C56.3238 17.82 56.0571 17.4067 55.7905 17.02C55.5238 16.62 55.2571 16.26 54.9905 15.94H53.4505V21H50.3305V7.34C51.0105 7.20667 51.7105 7.11333 52.4305 7.06C53.1638 7.00667 53.8171 6.98 54.3905 6.98ZM54.5705 9.64C54.3438 9.64 54.1371 9.64667 53.9505 9.66C53.7771 9.67333 53.6105 9.68667 53.4505 9.7V13.46H54.3305C55.5038 13.46 56.3438 13.3133 56.8505 13.02C57.3571 12.7267 57.6105 12.2267 57.6105 11.52C57.6105 10.84 57.3505 10.36 56.8305 10.08C56.3238 9.78667 55.5705 9.64 54.5705 9.64ZM63.6703 21V7.14H73.0303V9.76H66.7903V12.48H72.3303V15.04H66.7903V18.38H73.4903V21H63.6703Z" fill="white"/>
</svg>
